  <svg xmlns="http://www.w3.org/2000/svg" viewBox="0 0 366.2 705.753" width="100%" style="vertical-align: middle; max-width: 100%;">
   <g>
    <g>
     <path d="M224.8,161.728l-1.415,3.31-1.316,3.474c-.861,2.332-1.673,4.719-2.477,7.1q-2.371,7.19-4.554,14.5-4.378,14.593-8.384,29.357c-5.385,19.657-10.512,39.407-15.533,59.186s-9.922,39.595-14.75,59.429-9.588,39.695-14.248,59.55l.171-1.4c.129,25.661.579,51.4,1.2,77.1q.96,38.553,2.587,77.069c1.154,25.67,2.519,51.321,4.3,76.92,1.848,25.589,4.046,51.133,6.978,76.521l-17.393,1.911c-2.537-25.823-4.311-51.632-5.731-77.436-1.354-25.8-2.285-51.6-3-77.4q-1.006-38.691-1.273-77.373c-.183-25.8-.193-51.553.119-77.39l.01-.753.161-.644q7.484-29.769,15.213-59.424,7.722-29.676,15.712-59.291c5.344-19.739,10.795-39.453,16.515-59.114,2.858-9.831,5.8-19.644,8.911-29.434q2.325-7.343,4.862-14.662c.868-2.442,1.738-4.877,2.685-7.321l1.457-3.667,1.656-3.708Z" fill="rgb(233,224,164)">
     </path>
     <rect x="167.523" y="379.594" width="3.294" height="30.288" transform="translate(503.339 124.984) rotate(74.286)" fill="rgb(161,199,181)">
     </rect>
     <path d="M176.707,391.659c42.706-43.537,143.135-63.5,168.175-20.168C335.79,416.566,229.325,423.05,176.707,391.659Z" fill="rgb(192,222,216)">
     </path>
     <path d="M344.882,371.491c-.294-.51-.6-1.008-.918-1.5-20.408-1.361-84.131-2.949-166.486,20.893-.258.258-.517.516-.771.775C229.325,423.05,335.79,416.566,344.882,371.491Z" fill="rgb(161,199,181)">
     </path>
     <rect x="233.919" y="172.746" width="2.66" height="24.456" transform="translate(516.902 83.836) rotate(122.07)" fill="rgb(161,199,181)">
     </rect>
     <path d="M241.18,187.811c49.2,1.917,115.63,51.143,103.3,89.626C312.6,296.456,250.955,236.308,241.18,187.811Z" fill="rgb(192,222,216)">
     </path>
     <path d="M344.483,277.437c.145-.452.276-.907.4-1.362-10.258-12.942-43.882-51.911-102.82-88.223-.3-.015-.589-.03-.882-.041C250.955,236.308,312.6,296.456,344.483,277.437Z" fill="rgb(161,199,181)">
     </path>
     <rect x="214.23" y="133.197" width="2.874" height="26.426" transform="translate(454.596 250.629) rotate(169.395)" fill="rgb(161,199,181)">
     </rect>
     <path d="M215.16,139.325C232.689,89.084,209.451,2.821,165.877,0,134.143,24.547,170.256,110.317,215.16,139.325Z" fill="rgb(192,222,216)">
     </path>
     <path d="M165.877,0c.513.033,1.021.082,1.528.138,8.959,15.433,34.851,64.655,48.063,138.283q-.153.453-.308.9C170.256,110.317,134.143,24.547,165.877,0Z" fill="rgb(161,199,181)">
     </path>
     <rect x="139.86" y="377.153" width="3.429" height="31.531" transform="translate(505.499 597.826) rotate(139.197)" fill="rgb(161,199,181)">
     </rect>
     <path d="M136.8,385.916c-12.075-62.329-87.81-137.341-134.438-114.1C-15.632,316.177,73.084,382.952,136.8,385.916Z" fill="rgb(192,222,216)">
     </path>
     <path d="M2.361,271.817c.549-.273,1.1-.529,1.659-.775C22.521,281.581,78.762,316.8,136.575,384.8c.076.372.152.744.224,1.116C73.084,382.952-15.632,316.177,2.361,271.817Z" fill="rgb(161,199,181)">
     </path>
     <rect x="137.885" y="400.002" width="3.429" height="31.531" transform="translate(322.398 17.1) rotate(43.193)" fill="rgb(161,199,181)">
     </rect>
     <path d="M133.136,421.25C72.412,439.778,5.733,522.944,33.725,566.885,79.723,580.14,136.853,484.925,133.136,421.25Z" fill="rgb(192,222,216)">
     </path>
     <path d="M33.725,566.885c-.329-.517-.641-1.041-.944-1.568,8.546-19.5,37.689-79.119,99.268-143.727.363-.115.725-.23,1.087-.34C136.853,484.925,79.724,580.139,33.725,566.885Z" fill="rgb(161,199,181)">
     </path>
     <rect x="230.912" y="144.117" width="2.793" height="25.677" transform="translate(225.703 -123.328) rotate(54.606)" fill="rgb(161,199,181)">
     </rect>
     <path d="M237.446,152.346C259.105,105.4,333.571,60.793,365.93,88.233,371.541,126.809,288.409,162.381,237.446,152.346Z" fill="rgb(192,222,216)">
     </path>
     <path d="M365.93,88.233c-.381-.323-.769-.633-1.161-.936-16.679,4.741-68,21.666-126.929,64.21-.132.279-.265.559-.394.839C288.409,162.381,371.541,126.809,365.93,88.233Z" fill="rgb(161,199,181)">
     </path>
     <path d="M188.823,166.194c-1.957-3.183-6.013-4.323-11.9-1.336a1.881,1.881,0,0,1-2.65-1.116c-3.9-12.251-16.629-9.523-14.569,3.306a1.857,1.857,0,0,1-1.852,2.158c-12.857-.076-14.2,12.872-1.358,14.877a1.857,1.857,0,0,1,1.48,2.428c-4.045,12.205,7.855,17.479,13.729,5.889a1.856,1.856,0,0,1,2.766-.657c10.36,7.619,19.054-2.072,9.84-11.242a1.881,1.881,0,0,1,.218-2.863C189.852,173.759,190.916,169.36,188.823,166.194Z" fill="rgb(255, 218, 122)">
     </path>
     <circle cx="169.886" cy="177.8" r="5.701" fill="rgb(255, 233, 166)">
     </circle>
     <path d="M229.092,131.842c-3.023-2.2-7.208-1.7-11.514,3.306a1.881,1.881,0,0,1-2.875-.02c-8.28-9.837-19-2.46-12.206,8.613a1.856,1.856,0,0,1-.889,2.7c-11.914,4.835-8.212,17.314,4.42,14.27a1.857,1.857,0,0,1,2.294,1.68c.917,12.825,13.929,13.161,14.938.206a1.857,1.857,0,0,1,2.306-1.662c12.483,3.091,16.823-9.184,4.807-14.145a1.883,1.883,0,0,1-.891-2.73C232.929,138.442,232.234,133.971,229.092,131.842Z" fill="rgb(255, 218, 122)">
     </path>
     <circle cx="216.014" cy="149.794" r="5.701" fill="rgb(255, 233, 166)">
     </circle>
     <path d="M226.062,196.457c-.078-.1-.158-.192-.239-.289a3.45,3.45,0,0,1,.467-4.882l.111-.09c13.08-10.857,1.641-21.532-9.918-11.6a3.455,3.455,0,0,1-4.925-.43h0c-10.857-13.079-21.532-1.641-11.6,9.919a3.454,3.454,0,0,1-.429,4.925h0c-13.08,10.857-1.641,21.532,9.918,11.6a3.455,3.455,0,0,1,4.925.43h0C224.143,218.606,236.463,208.513,226.062,196.457Z" fill="rgb(255, 218, 122)">
     </path>
     <circle cx="212.963" cy="192.601" r="5.737" fill="rgb(255, 233, 166)">
     </circle>
     <path d="M194.039,130.114c-.01-.123-.021-.248-.033-.374A3.449,3.449,0,0,1,197.172,126l.143-.012c16.934-1.47,13.616-16.76-1.54-15.187a3.453,3.453,0,0,1-3.8-3.158h0c-1.471-16.935-16.761-13.617-15.187,1.54a3.456,3.456,0,0,1-3.159,3.8h0c-16.935,1.47-13.616,16.76,1.54,15.186a3.456,3.456,0,0,1,3.8,3.159h0C179.843,147.223,195.717,145.948,194.039,130.114Z" fill="rgb(255, 218, 122)">
     </path>
     <circle cx="185.47" cy="119.482" r="5.737" fill="rgb(255, 233, 166)">
     </circle>
     <path d="M111.05,371.59c3.619.931,7.329-1.065,9.493-7.306a1.883,1.883,0,0,1,2.682-1.038c11.316,6.106,18.579-4.7,8.187-12.5a1.858,1.858,0,0,1-.166-2.839c9.3-8.874,1.276-19.12-9.354-11.647a1.857,1.857,0,0,1-2.751-.719c-5.566-11.591-17.791-7.122-13.968,5.3a1.858,1.858,0,0,1-1.535,2.394c-12.745,1.711-12.27,14.723.728,14.921a1.882,1.882,0,0,1,1.831,2.212C105.057,366.861,107.346,370.765,111.05,371.59Z" fill="rgb(255, 218, 122)">
     </path>
     <circle cx="116.617" cy="350.088" r="5.701" fill="rgb(255, 233, 166)">
     </circle>
     <path d="M120.692,464.516c3.619.932,7.329-1.065,9.493-7.306a1.883,1.883,0,0,1,2.682-1.038c11.316,6.106,18.579-4.7,8.187-12.5a1.856,1.856,0,0,1-.166-2.838c9.3-8.875,1.275-19.121-9.355-11.648a1.856,1.856,0,0,1-2.75-.719c-5.566-11.591-17.791-7.122-13.969,5.3a1.857,1.857,0,0,1-1.534,2.394c-12.745,1.712-12.27,14.723.727,14.922a1.882,1.882,0,0,1,1.832,2.211C114.7,459.787,116.988,463.691,120.692,464.516Z" fill="rgb(255, 218, 122)">
     </path>
     <circle cx="126.258" cy="443.014" r="5.701" fill="rgb(255, 233, 166)">
     </circle>
     <path d="M105.932,424.272c3.7-.519,6.369-3.78,5.989-10.375A1.882,1.882,0,0,1,114,411.915c12.789,1.327,15.383-11.428,2.8-14.674a1.858,1.858,0,0,1-1.237-2.561c5.215-11.753-6.115-18.161-13.09-7.2a1.857,1.857,0,0,1-2.817.385c-9.567-8.592-19.162.2-10.891,10.225a1.858,1.858,0,0,1-.5,2.8c-11.129,6.444-5.726,18.29,6.364,13.516a1.882,1.882,0,0,1,2.537,1.345C98.589,422.187,102.194,424.923,105.932,424.272Z" fill="rgb(255, 218, 122)">
     </path>
     <circle cx="102.876" cy="402.273" r="5.701" fill="rgb(255, 233, 166)">
     </circle>
     <path d="M63.239,375.676c.124.015.248.029.374.042a3.448,3.448,0,0,1,3.053,3.837l-.016.142c-1.872,16.895,13.772,16.633,15.194,1.461a3.455,3.455,0,0,1,3.842-3.111h0c16.895,1.872,16.633-13.772,1.461-15.2a3.454,3.454,0,0,1-3.111-3.842h0c1.871-16.895-13.772-16.632-15.2-1.461A3.455,3.455,0,0,1,65,360.661h0C49.239,358.407,47.383,374.224,63.239,375.676Z" fill="rgb(255, 218, 122)">
     </path>
     <circle cx="75.343" cy="369.354" r="5.737" fill="rgb(255, 233, 166)">
     </circle>
     <path d="M132.354,401.172l.283.247a3.448,3.448,0,0,1,.324,4.893l-.095.107c-11.164,12.819,1.842,21.516,11.655,9.858a3.454,3.454,0,0,1,4.93-.368h0c12.818,11.164,21.516-1.843,9.858-11.655a3.454,3.454,0,0,1-.368-4.93h0c11.163-12.819-1.843-21.516-11.655-9.858a3.454,3.454,0,0,1-4.93.368h0C130.687,379,120.151,390.945,132.354,401.172Z" fill="rgb(255, 218, 122)">
     </path>
     <circle cx="145.903" cy="402.872" r="5.737" fill="rgb(255, 233, 166)">
     </circle>
    </g>
   </g>
  </svg>
