<svg xmlns="http://www.w3.org/2000/svg" x="0px" y="0px" width="100%" viewBox="0 0 3545 1020.4" style="vertical-align: middle; max-width: 100%; width: 100%;"><path d="M3916.5,513c41,57.2-188.5,131.9-216.2,134.1c-100.7,8.1-203.1-31.4-289.7-79.1   c-129.7-71.5-245-166-367.7-248.9c-122.7-83-257-155.9-403.7-175.6c-130.3-17.5-262.7,13.5-365,97.2   c-106.9,87.6-176.6,225.3-316.6,267.5c-96,28.9-200.4,0.8-290.7-42.8c-90.3-43.6-173-102.4-265.9-140.3   c-138.8-56.6-294.2-61.8-436.4-16.3c-279.6,89.4-424.9,260.9-731.7,138.4C-98.6,314.8-390.7,85.4-597.8-205.3   c-92.3-129.5-168.5-271.2-275.6-388.6l-220.6,118.8c0,0,3560.1,5396.5,3572.3,5368.4c12.2-28,2907.5-2333.1,2907.5-2333.1   S3917.2,514,3916.5,513" fill="rgb(153,122,93)"></path><path d="M3941,598.1c41,57.2-188.5,131.9-216.2,134.1c-100.7,8.1-203.1-31.4-289.7-79.1   c-129.7-71.5-245-166-367.7-248.9c-122.7-83-257-155.9-403.7-175.6c-130.3-17.5-262.7,13.5-365,97.2   C2191.7,413.4,2122,551.2,1982,593.4c-96,28.9-200.4,0.8-290.7-42.8c-90.3-43.6-173-102.4-265.9-140.3   c-138.8-56.6-294.2-61.8-436.4-16.3c-279.6,89.4-424.9,260.9-731.7,138.4C-74.2,399.9-366.2,170.5-573.4-120.2   C-665.6-249.6-741.8-391.4-849-508.8L-1069.6-390c0,0,3560.1,5396.5,3572.3,5368.4c12.2-28,2907.5-2333.1,2907.5-2333.1   S3941.7,599.1,3941,598.1" fill="#ffffff"></path><rect x="194.7" y="-1770.1" transform="matrix(-0.8412 0.5408 -0.5408 -0.8412 4101.7832 569.9586)" width="3545" height="5315" fill="none"></rect></svg>